<svg t="1598427798582" class="icon" viewBox="0 0 1024 1024" version="1.1" xmlns="http://www.w3.org/2000/svg" p-id="1302" width="200" height="200"><path d="M327.68 830.72v-272.896c0-25.1392 20.5312-45.4656 45.9264-45.4656h276.0192c25.3952 0 46.0288 20.3264 46.0288 45.4656v272.896h137.984V377.0368l-321.536-176.6912-322.4576 177.2032v453.12h137.984zM97.536 421.5296a46.336 46.336 0 0 1-44.8512-34.048 45.568 45.568 0 0 1 21.8112-51.5584l414.1056-227.4304a46.4896 46.4896 0 0 1 45.9776 0l414.0544 227.3792a45.312 45.312 0 0 1 22.528 51.712 46.0288 46.0288 0 0 1-45.568 33.792v454.7584c0 25.088-20.5824 45.4656-45.9776 45.4656H143.616a46.336 46.336 0 0 1-32.5632-13.312 45.2096 45.2096 0 0 1-13.4656-32.2048v-454.656 0.1024z m322.048 409.1904h184.0128v-227.4304H419.6352v227.4304z" p-id="1303"></path></svg>