<?xml version="1.0" standalone="no"?><!DOCTYPE svg PUBLIC "-//W3C//DTD SVG 1.1//EN" "http://www.w3.org/Graphics/SVG/1.1/DTD/svg11.dtd"><svg t="1614392222771" class="icon" viewBox="0 0 1024 1024" version="1.1" xmlns="http://www.w3.org/2000/svg" p-id="12843" xmlns:xlink="http://www.w3.org/1999/xlink" width="200" height="200"><defs><style type="text/css"></style></defs><path d="M512 0C229.229714 0 0 229.229714 0 512s229.229714 512 512 512 512-229.229714 512-512S794.770286 0 512 0z m236.580571 443.428571c-1.024 4.461714-3.657143 11.044571-7.387428 18.944h0.109714l-0.365714 0.731429c-21.540571 45.970286-77.641143 136.155429-77.641143 136.155429l-0.256-0.621715-16.384 28.525715h78.994286l-150.893715 200.557714 34.267429-136.411429h-62.171429l21.577143-90.221714c-17.444571 4.205714-38.107429 9.984-62.573714 17.846857 0 0-33.097143 19.382857-95.341714-37.229714 0 0-41.947429-37.010286-17.590857-46.226286 10.349714-3.913143 50.212571-8.96 81.590857-13.165714 42.496-5.705143 68.534857-8.777143 68.534857-8.777143s-130.779429 1.938286-161.792-2.925714C350.208 505.782857 310.857143 453.961143 302.445714 408.502857c0 0-12.982857-24.941714 27.867429-13.165714 40.850286 11.849143 209.92 46.08 209.92 46.08S320.475429 374.016 305.737143 357.522286c-14.628571-16.384-43.044571-89.746286-39.350857-134.765715 0 0 1.572571-11.264 13.165714-8.192 0 0 162.56 74.203429 273.700571 114.834286 111.177143 40.704 207.798857 61.366857 195.328 114.029714z" fill="#3AA2EB" p-id="12844"></path></svg>