<?xml version="1.0" standalone="no"?><!DOCTYPE svg PUBLIC "-//W3C//DTD SVG 1.1//EN" "http://www.w3.org/Graphics/SVG/1.1/DTD/svg11.dtd"><svg t="1614392042941" class="icon" viewBox="0 0 1024 1024" version="1.1" xmlns="http://www.w3.org/2000/svg" p-id="2116" xmlns:xlink="http://www.w3.org/1999/xlink" width="200" height="200"><defs><style type="text/css"></style></defs><path d="M579.5328 512a24.6272 24.6272 0 0 0-23.3472 24.32c1.2288 12.0832 11.2128 21.3504 23.3472 21.76 17.6128 0 30.0544-10.8544 30.0544-21.76A26.88 26.88 0 0 0 579.584 512z m-76.8-112.64a27.8528 27.8528 0 0 0 30.0544-29.1328 27.4944 27.4944 0 0 0-30.0544-29.0816 32 32 0 0 0-34.2528 29.0816c1.6896 17.3056 16.896 30.1056 34.2528 28.8256V399.36zM512 0C229.2224 0 0 229.2224 0 512s229.2224 512 512 512 512-229.2224 512-512S794.7776 0 512 0zM416 641.5872a275.8656 275.8656 0 0 1-82.5344-13.4144l-85.1456 43.8272 24.32-71.68A192 192 0 0 1 178.2272 440.32c0-113.6128 106.9056-200.2944 236.8-200.2944 115.2 0 217.6 68.4544 237.7728 165.12a116.1728 116.1728 0 0 0-22.3744-2.56 193.8944 193.8944 0 0 0-200.96 187.8016c0.1536 16.7424 2.4064 33.4336 6.656 49.6128-6.656 0.9216-13.3632 1.4336-20.1216 1.5872z m347.8528 81.6128l16.64 60.16-64-35.84c-23.3984 6.5536-47.4624 10.752-71.68 12.4928-111.6672 0-200.3456-76.8-200.3456-171.8272 0-95.0784 88.32-172.1856 200.0384-172.1856 105.8816 0 200.96 76.8 200.96 171.8272a176.9472 176.9472 0 0 1-82.2784 135.68l0.6656-0.3072z m-425.2672-384a32 32 0 0 0-35.84 29.1328 32 32 0 0 0 35.84 29.1328 28.8256 28.8256 0 0 0 30.0544-29.184 28.16 28.16 0 0 0-31.0272-27.8016l0.9728-1.28zM710.4 512a24.0128 24.0128 0 0 0-23.3472 24.32c1.024 12.1856 11.1104 21.6576 23.3472 21.76a26.88 26.88 0 0 0 29.1328-21.76 26.5728 26.5728 0 0 0-29.1328-24.32z" fill="#07C060" p-id="2117"></path></svg>