<?xml version="1.0" encoding="utf-8"?>
<!-- Generator: Adobe Illustrator 23.0.3, SVG Export Plug-In . SVG Version: 6.00 Build 0)  -->
<svg version="1.1" id="图层_1" xmlns="http://www.w3.org/2000/svg" xmlns:xlink="http://www.w3.org/1999/xlink" x="0px" y="0px"
	 viewBox="0 0 510.2 510.2" style="enable-background:new 0 0 510.2 510.2;" xml:space="preserve">
<style type="text/css">
	.st0{fill:#1890FF;}
</style>
<path class="st0" d="M500.4,255.2c0-32.5-40.7-63.3-103.1-82.4c14.4-63.6,8-114.2-20.2-130.4c-6.5-3.8-14.1-5.6-22.4-5.6v22.3
	c4.6,0,8.3,0.9,11.4,2.6c13.6,7.8,19.5,37.5,14.9,75.7c-1.1,9.4-2.9,19.3-5.1,29.4c-19.6-4.8-41-8.5-63.5-10.9
	c-13.5-18.5-27.5-35.3-41.6-50C303.4,75.6,334,59,354.8,59V36.7c-27.5,0-63.5,19.6-99.9,53.6c-36.4-33.8-72.4-53.2-99.9-53.2v22.3
	c20.7,0,51.4,16.5,84,46.6c-14,14.7-28,31.4-41.3,49.9c-22.6,2.4-44,6.1-63.6,11c-2.3-10-4-19.7-5.2-29
	c-4.7-38.2,1.1-67.9,14.6-75.8c3-1.8,6.9-2.6,11.5-2.6V37.2c-8.4,0-16,1.8-22.6,5.6C104.3,59,98,109.5,112.5,172.9
	C50.3,192.1,9.8,222.8,9.8,255.2c0,32.5,40.7,63.3,103.1,82.4c-14.4,63.6-8,114.2,20.2,130.4c6.5,3.8,14.1,5.6,22.5,5.6
	c27.5,0,63.5-19.6,99.9-53.6c36.4,33.8,72.4,53.2,99.9,53.2c8.4,0,16-1.8,22.6-5.6c28.1-16.2,34.4-66.7,19.9-130.1
	C459.9,318.4,500.4,287.6,500.4,255.2L500.4,255.2z M370.2,188.5c-3.7,12.9-8.3,26.2-13.5,39.5c-4.1-8-8.4-16-13.1-24
	c-4.6-8-9.5-15.8-14.4-23.4C343.4,182.7,357.1,185.3,370.2,188.5L370.2,188.5z M324.4,295c-7.8,13.5-15.8,26.3-24.1,38.2
	c-14.9,1.3-30,2-45.2,2c-15.1,0-30.2-0.7-45-1.9c-8.3-11.9-16.4-24.6-24.2-38c-7.6-13.1-14.5-26.4-20.8-39.8
	c6.2-13.4,13.2-26.8,20.7-39.9c7.8-13.5,15.8-26.3,24.1-38.2c14.9-1.3,30-2,45.2-2c15.1,0,30.2,0.7,45,1.9
	c8.3,11.9,16.4,24.6,24.2,38c7.6,13.1,14.5,26.4,20.8,39.8C338.8,268.5,331.9,281.9,324.4,295L324.4,295z M356.7,282
	c5.4,13.4,10,26.8,13.8,39.8c-13.1,3.2-26.9,5.9-41.2,8c4.9-7.7,9.8-15.6,14.4-23.7C348.3,298.1,352.6,290,356.7,282L356.7,282z
	 M255.3,388.7c-9.3-9.6-18.6-20.3-27.8-32c9,0.4,18.2,0.7,27.5,0.7c9.4,0,18.7-0.2,27.8-0.7C273.8,368.4,264.5,379.1,255.3,388.7z
	 M180.9,329.8c-14.2-2.1-27.9-4.7-41-7.9c3.7-12.9,8.3-26.2,13.5-39.5c4.1,8,8.4,16,13.1,24S176,322.2,180.9,329.8z M254.8,121.7
	c9.3,9.6,18.6,20.3,27.8,32c-9-0.4-18.2-0.7-27.5-0.7c-9.4,0-18.7,0.2-27.8,0.7C236.3,142,245.6,131.3,254.8,121.7z M180.8,180.6
	c-4.9,7.7-9.8,15.6-14.4,23.7c-4.6,8-8.9,16-13,24c-5.4-13.4-10-26.8-13.8-39.8C152.7,185.4,166.5,182.7,180.8,180.6L180.8,180.6z
	 M90.3,305.8C54.9,290.7,32,270.9,32,255.2s22.9-35.6,58.3-50.6c8.6-3.7,18-7,27.7-10.1c5.7,19.6,13.2,40,22.5,60.9
	c-9.2,20.8-16.6,41.1-22.2,60.6C108.4,312.9,99,309.5,90.3,305.8L90.3,305.8z M144.1,448.7c-13.6-7.8-19.5-37.5-14.9-75.7
	c1.1-9.4,2.9-19.3,5.1-29.4c19.6,4.8,41,8.5,63.5,10.9c13.5,18.5,27.5,35.3,41.6,50c-32.6,30.3-63.2,46.9-84,46.9
	C150.9,451.3,147.1,450.4,144.1,448.7L144.1,448.7z M381.3,372.5c4.7,38.2-1.1,67.9-14.6,75.8c-3,1.8-6.9,2.6-11.5,2.6
	c-20.7,0-51.4-16.5-84-46.6c14-14.7,28-31.4,41.3-49.9c22.6-2.4,44-6.1,63.6-11C378.4,353.5,380.2,363.2,381.3,372.5z M419.8,305.8
	c-8.6,3.7-18,7-27.7,10.1c-5.7-19.6-13.2-40-22.5-60.9c9.2-20.8,16.6-41.1,22.2-60.6c9.9,3.1,19.3,6.5,28.1,10.2
	c35.4,15.1,58.3,34.9,58.3,50.6C478.1,270.9,455.2,290.8,419.8,305.8L419.8,305.8z"/>
<circle class="st0" cx="255" cy="255.2" r="45.7"/>
<path class="st0" d="M354.6,36.8"/>
</svg>
